<?xml version="1.0" standalone="no"?>
<!DOCTYPE svg PUBLIC "-//W3C//DTD SVG 20010904//EN"
 "http://www.w3.org/TR/2001/REC-SVG-20010904/DTD/svg10.dtd">
<svg version="1.0" xmlns="http://www.w3.org/2000/svg"
 width="377.000000pt" height="377.000000pt" viewBox="0 0 377.000000 377.000000"
 preserveAspectRatio="xMidYMid meet">

<g transform="translate(0.000000,377.000000) scale(0.100000,-0.100000)"
fill="#000000" stroke="none">
<path d="M1585 3614 c-741 -101 -1348 -646 -1524 -1369 -38 -156 -45 -228 -45
-425 0 -261 30 -429 119 -657 302 -773 1099 -1245 1922 -1138 774 101 1385
665 1549 1430 35 163 44 455 20 624 -78 531 -393 1004 -853 1285 -119 72 -180
102 -299 147 -279 105 -602 142 -889 103z m408 -99 c371 -43 687 -184 956
-425 457 -410 657 -1017 535 -1620 -37 -180 -140 -429 -241 -582 -442 -664
-1274 -942 -2018 -673 -486 176 -869 564 -1038 1051 -279 803 85 1695 848
2076 233 117 497 182 760 187 39 0 128 -6 198 -14z"/>
<path d="M2455 3043 c-114 -45 -315 -96 -470 -119 -88 -13 -176 -18 -330 -18
-228 1 -360 15 -548 60 -60 14 -111 23 -114 20 -3 -3 11 -89 32 -190 28 -135
43 -187 54 -191 21 -8 321 -42 481 -54 125 -9 178 -22 192 -44 15 -23 8 -216
-12 -334 -59 -343 -186 -683 -346 -923 -125 -188 -341 -420 -526 -563 -43 -33
-78 -64 -78 -68 0 -4 26 -13 57 -20 122 -25 463 10 554 57 64 32 231 252 334
439 54 96 159 312 176 359 16 44 41 64 127 100 146 62 358 87 536 63 l58 -7
-7 242 c-4 134 -9 245 -10 247 -4 3 -11 1 -334 -113 -118 -42 -216 -74 -219
-72 -2 3 7 33 21 68 40 100 50 170 52 378 l3 195 88 28 c253 80 490 159 501
168 9 8 3 22 -23 56 -52 68 -82 123 -108 199 -13 38 -30 70 -38 70 -7 1 -53
-14 -103 -33z"/>
<path d="M2418 936 c-67 -29 -107 -102 -94 -170 15 -78 103 -136 183 -121 46
8 100 59 114 105 37 122 -88 237 -203 186z"/>
</g>
</svg>
