<?xml version="1.0" standalone="no"?>
<!DOCTYPE svg PUBLIC "-//W3C//DTD SVG 20010904//EN"
 "http://www.w3.org/TR/2001/REC-SVG-20010904/DTD/svg10.dtd">
<svg version="1.0" xmlns="http://www.w3.org/2000/svg"
 width="883.000000pt" height="573.000000pt" viewBox="0 0 883.000000 573.000000"
 preserveAspectRatio="xMidYMid meet">

<g transform="translate(0.000000,573.000000) scale(0.100000,-0.100000)"
fill="#000000" stroke="none">
<path d="M270 5450 l0 -40 1654 0 c910 0 1661 3 1670 6 19 7 21 45 4 62 -9 9
-394 12 -1670 12 l-1658 0 0 -40z"/>
<path d="M5392 5478 c-17 -17 -15 -55 4 -62 9 -3 630 -6 1380 -6 l1364 0 0 40
0 40 -1368 0 c-1051 0 -1371 -3 -1380 -12z"/>
<path d="M1995 5393 c-1117 -2 -1602 -6 -1610 -14 -7 -7 -3 -16 14 -30 23 -19
58 -19 1618 -19 1080 0 1601 3 1614 10 10 6 19 17 19 25 0 15 -32 37 -47 33
-4 -2 -728 -4 -1608 -5z"/>
<path d="M6790 5390 c-1188 -5 -1275 -6 -1278 -22 -2 -12 7 -20 36 -28 28 -7
437 -9 1321 -8 1202 3 1281 4 1298 20 24 25 6 39 -53 41 -27 1 -623 0 -1324
-3z"/>
<path d="M270 5190 l0 -40 1828 2 1827 3 3 24 c3 15 -3 30 -14 38 -15 11 -355
13 -1831 13 l-1813 0 0 -40z"/>
<path d="M4926 5217 c-11 -8 -17 -23 -14 -38 l3 -24 1613 -3 1612 -2 0 40 0
40 -1598 0 c-1299 0 -1602 -2 -1616 -13z"/>
<path d="M2141 5130 c-1302 -4 -1765 -8 -1768 -16 -2 -7 3 -19 12 -28 15 -15
170 -16 1781 -16 1198 0 1772 3 1785 10 10 6 19 17 19 25 0 16 -32 36 -52 33
-7 -2 -807 -5 -1777 -8z"/>
<path d="M6593 5132 c-1545 -2 -1563 -2 -1563 -22 0 -10 9 -24 19 -30 27 -14
3095 -14 3122 0 24 13 25 37 2 47 -10 4 -721 7 -1580 5z"/>
<path d="M4739 4952 c-25 -17 -24 -37 3 -56 20 -14 199 -16 1710 -16 l1688 0
0 40 0 40 -1691 2 c-1380 3 -1695 1 -1710 -10z"/>
<path d="M270 4920 l0 -40 1893 0 c1542 0 1896 2 1911 13 11 8 17 23 14 38
l-3 24 -1907 3 -1908 2 0 -40z"/>
<path d="M2232 4873 c-1698 -3 -1843 -4 -1849 -19 -17 -45 -78 -44 1870 -44
1248 0 1845 3 1858 10 10 6 19 17 19 25 0 15 -32 37 -47 33 -4 -2 -837 -4
-1851 -5z"/>
<path d="M4853 4854 c-17 -45 -65 -44 1662 -44 1727 0 1679 -1 1662 44 -6 15
-135 16 -1662 16 -1527 0 -1656 -1 -1662 -16z"/>
<path d="M270 4700 l0 -40 1984 0 c1791 0 1986 2 2000 16 18 17 19 24 10 48
-6 15 -191 16 -2000 16 l-1994 0 0 -40z"/>
<path d="M4481 4722 c-7 -14 -6 -25 5 -40 l15 -22 1820 0 1819 0 0 40 0 40
-1825 0 c-1763 0 -1825 -1 -1834 -18z"/>
<path d="M2321 4650 c-1283 -3 -1945 -8 -1948 -15 -1 -5 2 -17 7 -25 8 -13
238 -15 1950 -18 1333 -1 1947 1 1961 8 24 14 24 36 0 50 -11 5 -21 9 -23 8
-2 -2 -878 -5 -1947 -8z"/>
<path d="M4596 4633 c-17 -44 -67 -43 1789 -43 1865 0 1809 -1 1792 44 -6 15
-144 16 -1791 16 -1679 0 -1784 -1 -1790 -17z"/>
<path d="M270 4480 l0 -40 3935 0 3935 0 0 40 0 40 -3935 0 -3935 0 0 -40z"/>
<path d="M391 4416 c-9 -11 -8 -18 4 -30 15 -15 346 -16 3888 -16 2130 0 3878
4 3885 9 8 5 12 17 10 27 -3 19 -95 19 -3889 22 -3318 2 -3888 0 -3898 -12z"/>
<path d="M270 4260 l0 -40 3935 0 3935 0 0 40 0 40 -3935 0 -3935 0 0 -40z"/>
<path d="M393 4194 c-17 -46 -206 -44 3892 -44 4111 0 3924 -2 3886 44 -12 15
-341 16 -3893 16 -3590 0 -3879 -1 -3885 -16z"/>
<path d="M270 4030 l0 -40 3935 0 3935 0 0 40 0 40 -3935 0 -3935 0 0 -40z"/>
<path d="M4267 3972 c-3586 -2 -3878 -3 -3884 -18 -17 -46 -206 -44 3895 -44
2644 0 3869 3 3883 10 24 13 25 37 2 47 -10 4 -1763 7 -3896 5z"/>
<path d="M270 3810 l0 -40 3935 0 3935 0 0 40 0 40 -3935 0 -3935 0 0 -40z"/>
<path d="M4217 3752 c-3806 -2 -3837 -2 -3837 -22 0 -10 9 -24 19 -30 27 -14
7735 -14 7762 0 21 12 25 35 8 45 -5 4 -34 8 -62 8 -29 1 -1779 1 -3890 -1z"/>
<path d="M2967 3370 c-147 -25 -213 -106 -232 -287 l-7 -63 -374 0 -374 0 0
145 0 145 -856 2 c-471 2 -858 1 -860 -1 -2 -2 -4 -683 -4 -1513 l0 -1508 860
0 860 0 0 484 0 485 718 4 c630 3 728 6 807 21 192 37 314 82 432 158 89 58
196 157 188 175 -2 8 -1 12 4 9 12 -8 53 48 101 136 71 132 120 313 140 519
l9 94 -4 -113 c-4 -122 -20 -205 -68 -347 -32 -95 -105 -245 -119 -245 -4 0
-8 -5 -8 -10 0 -10 -37 -55 -92 -113 -16 -16 -28 -33 -28 -38 0 -6 -5 -7 -10
-4 -6 3 -13 0 -16 -8 -14 -37 -247 -158 -364 -189 -203 -54 -272 -58 -997 -58
-358 0 -658 -3 -667 -6 -10 -4 -13 -12 -8 -22 4 -10 5 -226 2 -482 l-5 -465
-822 -3 c-870 -2 -853 -1 -805 -45 17 -16 89 -17 833 -17 688 0 818 2 835 14
18 14 19 33 24 448 5 391 7 437 22 461 36 53 12 52 763 58 746 7 764 8 922 59
38 12 114 45 170 72 81 39 120 66 184 125 151 143 225 275 285 508 36 141 43
273 44 818 0 464 -1 478 -20 497 -11 11 -24 20 -30 20 -6 0 -11 -157 -13 -437
l-2 -438 -3 483 -2 482 -682 -1 c-376 -1 -704 -5 -731 -9z"/>
<path d="M4961 3303 c8 -10 47 -57 89 -104 41 -47 94 -107 116 -135 141 -167
248 -291 265 -306 10 -9 19 -19 19 -23 0 -6 33 -46 145 -171 5 -6 80 -94 165
-195 85 -101 188 -216 228 -255 63 -61 73 -76 70 -100 -6 -53 -8 -53 -805 -53
l-733 -1 0 -830 0 -831 1518 4 1517 3 100 23 c404 91 671 288 820 604 142 300
152 638 26 902 -37 78 -74 127 -245 323 -46 53 -182 212 -302 352 -120 140
-224 262 -231 270 -7 8 -113 132 -236 275 l-222 260 -1159 3 c-1103 2 -1158 1
-1145 -15z"/>
<path d="M2002 3133 l3 -98 30 0 c22 0 30 5 29 18 0 9 -1 44 -2 77 -2 45 -7
65 -22 80 -36 36 -41 25 -38 -77z"/>
<path d="M8510 1853 c17 -26 30 -54 30 -63 0 -9 3 -20 7 -24 4 -3 8 -12 10
-19 33 -147 43 -216 43 -308 0 -108 -33 -335 -51 -354 -5 -5 -9 -23 -9 -41 0
-18 -3 -34 -8 -36 -4 -2 -33 -56 -65 -120 -33 -64 -65 -119 -73 -122 -16 -6
-19 -36 -3 -36 5 0 7 -5 3 -11 -5 -8 -8 -8 -14 0 -4 8 -28 -10 -66 -50 -94
-98 -137 -139 -150 -139 -3 0 -20 -11 -37 -24 -42 -31 -209 -116 -228 -116 -8
0 -19 -4 -25 -9 -9 -8 -140 -50 -179 -57 -108 -19 -218 -33 -305 -38 -58 -3
-707 -6 -1442 -6 -885 0 -1338 -3 -1338 -10 0 -5 9 -19 20 -30 21 -21 24 -21
1498 -17 1370 2 1484 4 1567 21 189 37 360 104 501 194 83 53 218 184 271 262
45 66 119 218 142 291 72 228 68 545 -8 722 -21 49 -106 187 -116 187 -2 0 9
-21 25 -47z m-290 -1313 c0 -5 -4 -10 -10 -10 -5 0 -10 5 -10 10 0 6 5 10 10
10 6 0 10 -4 10 -10z"/>
</g>
</svg>
